HIERARCHY
ROOT Pelvis
{
	OFFSET 0.000000 0.000000 0.000000
	CHANNELS 6 Xposition Yposition Zposition Zrotation Yrotation Xrotation 
	JOINT Left_hip
	{
		OFFSET 0.067986 -0.089946 -0.007639
		CHANNELS 3 Zrotation Yrotation Xrotation
		JOINT Left_knee
		{
			OFFSET 0.036308 -0.388288 -0.004016
			CHANNELS 3 Zrotation Yrotation Xrotation
			JOINT Left_ankle
			{
				OFFSET -0.012264 -0.413250 -0.042878
				CHANNELS 3 Zrotation Yrotation Xrotation
				JOINT Left_foot
				{
					OFFSET 0.024043 -0.058563 0.118570
					CHANNELS 3 Zrotation Yrotation Xrotation
					End Site
					{
						OFFSET 0.000000 0.000000 0.000000
					}
				}
			}
		}
	}
	JOINT Right_hip
	{
		OFFSET -0.065648 -0.089374 -0.003858
		CHANNELS 3 Zrotation Yrotation Xrotation
		JOINT Right_knee
		{
			OFFSET -0.042132 -0.395021 -0.006361
			CHANNELS 3 Zrotation Yrotation Xrotation
			JOINT Right_ankle
			{
				OFFSET 0.014805 -0.413264 -0.041054
				CHANNELS 3 Zrotation Yrotation Xrotation
				JOINT Right_foot
				{
					OFFSET -0.021758 -0.049013 0.121832
					CHANNELS 3 Zrotation Yrotation Xrotation
					End Site
					{
						OFFSET 0.000000 0.000000 0.000000
					}
				}
			}
		}
	}
	JOINT Spine1
	{
		OFFSET -0.002755 0.104406 -0.022277
		CHANNELS 3 Zrotation Yrotation Xrotation
		JOINT Spine2
		{
			OFFSET 0.004136 0.129393 -0.002186
			CHANNELS 3 Zrotation Yrotation Xrotation
			JOINT Spine3
			{
				OFFSET 0.001906 0.049304 0.025578
				CHANNELS 3 Zrotation Yrotation Xrotation
				JOINT Neck
				{
					OFFSET -0.004620 0.210958 -0.044063
					CHANNELS 3 Zrotation Yrotation Xrotation
					JOINT Head
					{
						OFFSET 0.003833 0.067393 0.052435
						CHANNELS 3 Zrotation Yrotation Xrotation
						End Site
						{
							OFFSET 0.000000 0.000000 0.000000
						}
					}
				}
				JOINT Left_collar
				{
					OFFSET 0.070771 0.116689 -0.037192
					CHANNELS 3 Zrotation Yrotation Xrotation
					JOINT Left_shoulder
					{
						OFFSET 0.080652 0.031596 -0.005617
						CHANNELS 3 Zrotation Yrotation Xrotation
						JOINT Left_elbow
						{
							OFFSET 0.262654 -0.015020 -0.027939
							CHANNELS 3 Zrotation Yrotation Xrotation
							JOINT Left_wrist
							{
								OFFSET 0.250438 0.010062 -0.000990
								CHANNELS 3 Zrotation Yrotation Xrotation
								JOINT Left_palm
								{
									OFFSET 0.081198 -0.010037 -0.013706
									CHANNELS 3 Zrotation Yrotation Xrotation
									End Site
									{
										OFFSET 0.000000 0.000000 0.000000
									}
								}
							}
						}
					}
				}
				JOINT Right_collar
				{
					OFFSET -0.072972 0.115556 -0.040762
					CHANNELS 3 Zrotation Yrotation Xrotation
					JOINT Right_shoulder
					{
						OFFSET -0.082917 0.031841 -0.006673
						CHANNELS 3 Zrotation Yrotation Xrotation
						JOINT Right_elbow
						{
							OFFSET -0.252882 -0.013790 -0.020410
							CHANNELS 3 Zrotation Yrotation Xrotation
							JOINT Right_wrist
							{
								OFFSET -0.255570 0.009163 -0.005138
								CHANNELS 3 Zrotation Yrotation Xrotation
								JOINT Right_palm
								{
									OFFSET -0.080804 -0.007282 -0.010415
									CHANNELS 3 Zrotation Yrotation Xrotation
									End Site
									{
										OFFSET 0.000000 0.000000 0.000000
									}
								}
							}
						}
					}
				}
			}
		}
	}
}
MOTION
Frames: 13
Frame Time: 0.100000
0.959579 0.097204 -0.199649 -179.904940 13.140371 -21.177843 2.992365 4.086626 12.246008 -17.768974 -17.813109 43.491955 -10.454421 -2.450428 -0.605333 2.962923 8.377208 -16.367025 -8.589646 -2.824598 -11.667628 7.484387 -0.578258 19.383952 8.836824 -10.166081 -6.747375 -11.789669 8.291890 0.005169 8.257351 -4.489802 14.410973 5.944689 -1.690045 11.105375 2.908577 -2.405573 0.620149 -2.070460 1.373073 -0.718207 -8.923947 -2.009902 3.964118 -27.138482 -3.294155 5.400904 -43.568788 -3.780575 14.771777 -14.385201 -44.134609 35.383166 -6.642715 -4.613182 6.909657 -12.272896 -4.823699 -14.349791 28.906199 9.277048 3.058011 28.451693 6.587225 6.744104 -5.332216 36.258504 -10.666742 1.105812 1.811569 0.161893 13.553389 7.496697 -6.833619 
0.965219 0.073817 -0.137732 -179.546952 16.071290 -22.117230 4.647649 3.778517 0.718088 -15.981359 -7.106085 59.678035 -10.834690 0.984241 2.458479 3.223898 7.861632 -17.806643 -8.546876 -4.322225 -4.101288 7.677147 0.543857 17.869239 4.421479 -9.860533 -9.999929 -7.626785 5.050299 0.575702 9.068386 -2.406817 16.807157 6.604253 -2.595713 10.699214 3.468154 -1.878164 1.054315 -3.200135 -1.087407 -1.068004 -7.873011 -2.499360 2.455010 -27.127765 -2.794173 5.791558 -43.647427 -2.001841 13.891558 -14.209860 -40.395424 34.231176 -7.698200 -3.988700 3.489314 -11.598611 -4.044156 -12.902385 29.229069 9.622696 3.964362 26.780647 6.786105 4.724630 -3.847197 30.353403 -10.636742 0.402652 0.726827 0.828880 12.608740 7.085508 -6.872250 
0.964796 0.051787 -0.083645 -178.289858 16.910273 -20.765388 4.255221 2.154796 -8.278145 -13.539873 -3.034700 56.918511 -8.583210 3.155631 -0.230876 4.236385 7.153484 -14.979608 -9.206946 -5.938579 2.670487 7.283570 2.079520 11.471864 4.610836 -8.767936 -11.018617 -6.960055 3.560122 1.266016 9.122737 0.448552 17.468063 6.626736 -2.596467 9.494772 3.702246 -0.707441 1.607095 -4.068958 -1.604319 -1.116604 -7.390248 -3.711728 2.236228 -25.848774 -1.110380 5.098274 -43.670582 -0.246112 13.869295 -13.765592 -41.230599 34.530873 -7.226488 -4.275641 1.804228 -11.663333 -3.819892 -12.402267 29.114779 9.072392 4.685568 26.705498 7.017709 3.485750 -2.676046 24.606844 -10.520474 -0.434858 0.560921 1.983227 12.779525 7.161204 -8.003563 
0.958336 0.042051 -0.029466 -178.058968 17.913550 -20.108216 3.854740 0.891270 -12.672254 -11.740444 -3.215390 42.025021 -8.045518 4.463803 -2.356238 6.860103 6.576912 -11.119387 -9.859106 -6.818698 8.997747 7.573988 2.848629 6.888917 4.504471 -8.160365 -13.584752 -4.982464 2.737534 3.387178 9.572995 2.042887 17.913902 6.510770 -2.756936 9.014166 3.828339 0.104998 1.773798 -4.388505 -0.819727 -1.564226 -7.701932 -4.827974 2.094813 -25.972303 0.002231 4.429868 -42.260665 1.247374 14.396642 -13.035390 -45.054333 33.850718 -6.507209 -5.534869 0.527215 -11.152904 -3.260123 -12.529190 29.615386 8.707874 5.327218 25.304115 6.762305 3.071795 -1.694577 22.630481 -10.627645 -0.932484 1.659930 1.938712 12.206436 6.671979 -8.558554 
0.943749 0.037495 0.024808 -178.400503 19.016326 -19.533150 2.433504 0.558617 -13.691061 -9.478974 -4.487364 20.527181 -8.915800 4.699182 -1.980637 9.712958 6.303237 -8.150464 -10.208031 -7.439054 13.642414 7.523020 2.600965 5.414084 4.508605 -7.782444 -16.588495 -3.229516 2.362574 4.748643 10.108861 2.739138 17.765863 6.360038 -3.075315 8.708562 4.038216 0.453022 1.917443 -4.042561 -0.000231 -1.041120 -7.876846 -5.656224 2.436147 -26.117522 0.416032 3.514947 -43.448941 1.018337 14.286327 -9.099915 -45.137788 29.065963 -6.098648 -6.030910 -0.316407 -9.808330 -2.537270 -12.604152 29.002542 8.245864 5.199642 25.556539 7.152744 2.970613 -2.090163 21.927103 -11.112706 -0.935367 2.677373 1.498530 10.736953 5.869776 -8.268932 
0.920604 0.036717 0.083217 -178.999813 18.768626 -19.118653 1.074353 0.626146 -12.774124 -6.732372 -5.216917 2.628998 -8.251244 5.581526 -4.312074 11.398463 6.334163 -4.341481 -10.112488 -7.459110 18.591774 7.027633 2.921223 3.944739 4.174591 -7.796145 -19.607742 -0.579891 1.612276 6.223095 10.123280 3.399707 17.734808 6.374789 -3.554168 9.106409 4.227125 0.642838 1.851528 -3.349967 1.454541 -1.008976 -8.443939 -6.281441 1.764942 -26.653284 0.001924 3.164938 -42.857957 1.382599 14.702169 -8.826278 -45.829788 29.441176 -6.931391 -6.598017 1.684744 -9.007054 -2.070539 -13.914147 29.158989 8.292784 5.148535 25.535866 7.267030 3.307656 -2.669344 23.468237 -11.413722 -0.517274 3.700031 0.368047 10.083896 5.451588 -8.689777 
0.886863 0.036754 0.148508 -179.979207 17.213183 -19.216338 0.824287 0.388288 -14.396633 -6.776887 -2.693112 6.650039 -6.658927 6.977499 -4.564150 10.905384 6.993204 -4.340669 -10.518799 -7.374778 21.988017 6.691032 4.364760 7.103624 3.065821 -7.938322 -21.959888 1.115790 1.005659 5.355032 10.096209 4.349829 17.547531 6.709927 -3.661834 9.691786 4.260555 0.947714 1.904857 -3.116633 1.539391 -0.992908 -8.566804 -6.082593 1.339382 -27.129732 -0.652900 2.991972 -42.125567 0.776247 14.220077 -8.765846 -44.600348 28.978208 -8.345765 -5.848285 2.170785 -8.921411 -1.842564 -13.608479 29.806547 8.570122 5.604561 24.999756 6.947789 3.390215 -2.927940 23.426438 -11.492181 0.394903 3.208509 0.574148 9.826168 5.379892 -8.911964 
0.839835 0.023715 0.214090 -179.848977 16.726735 -19.198632 -0.488333 -1.375239 -16.294391 -8.380492 -2.170622 19.193807 -4.612681 7.649404 -4.182151 9.830570 8.000715 -7.131595 -12.795718 -6.685638 20.002127 6.203610 6.467440 20.200200 6.340650 -8.530979 -18.642528 -3.383690 3.449222 -0.216849 9.513950 4.675103 17.421581 7.172381 -3.487612 9.967073 3.933700 0.819535 2.464578 -3.403765 1.144930 -2.242662 -8.736027 -5.087884 2.035010 -26.443544 -1.668563 3.206051 -42.903902 -0.740167 14.318631 -10.311013 -42.751755 30.416055 -6.203722 -4.217182 2.260717 -10.719279 -2.772912 -13.529611 29.848589 8.746052 5.371330 25.086317 6.348045 3.369335 -3.681120 21.694527 -13.717714 -0.344266 1.494312 2.914945 10.836948 6.114209 -10.073001 
0.794902 0.005541 0.274540 -179.557277 17.540459 -19.548958 -3.137158 -0.428620 -10.389251 -10.118971 -4.325993 19.999947 0.780553 7.875198 -8.914844 6.844290 8.713795 -7.139293 -14.525909 -5.871638 8.465750 6.522469 6.439749 45.323105 14.121156 -11.222587 -2.913881 -12.423434 8.013472 -10.149610 7.475021 2.745675 16.814420 8.154878 -2.150619 10.326298 3.684427 0.158201 2.701738 -2.524497 0.410545 -3.662362 -9.477938 -3.646125 3.691913 -24.733525 -1.533751 4.029477 -42.913283 -1.587852 14.040713 -15.486053 -46.314840 36.729349 -7.467282 -2.640143 3.072059 -12.763873 -5.015267 -15.802443 29.337322 8.695698 4.577141 25.039495 6.377611 3.952819 -3.901023 20.405171 -15.692711 2.151468 -0.544429 7.183926 12.886587 7.404834 -11.809242 
0.759872 -0.016495 0.328488 179.369916 21.001537 -21.343843 -5.343458 0.965610 -0.966640 -9.335907 -9.979966 15.851165 1.733890 8.231038 -10.634696 5.637386 8.462009 -7.647184 -12.789054 -4.546530 -0.712474 5.801539 3.435082 60.224006 14.065189 -14.786107 -1.544488 -13.516143 10.130317 -11.523001 7.206066 -0.754988 17.307655 8.744666 -1.839700 10.524384 3.727004 -1.022518 2.561976 -2.385427 0.525386 -4.371667 -10.997024 -3.186145 4.322523 -24.742326 -2.958352 4.602207 -41.994448 -3.052062 14.029389 -16.720143 -48.887488 38.023692 -6.103295 -2.717857 3.642873 -11.833212 -5.113438 -16.235212 29.675576 9.560042 3.746031 24.666880 5.872064 4.555781 -4.462133 20.765163 -17.329745 1.980062 -0.645078 7.741388 11.755348 6.955323 -10.932177 
0.732083 -0.035651 0.377758 178.061407 23.399157 -20.912795 -4.814921 2.852849 6.669776 -8.123374 -14.620419 8.702352 0.137349 7.582370 -11.085746 5.697228 7.033744 -7.198614 -10.968246 -3.032264 -10.583786 5.771996 0.584425 57.010364 13.240836 -13.222900 -6.603602 -12.379133 10.186785 -7.288294 7.503876 -3.706857 16.532638 8.996581 -1.318983 10.242101 4.101629 -1.623417 2.009347 -2.204957 1.579819 -4.131177 -11.563839 -3.621733 4.281480 -24.334954 -2.716689 4.317338 -42.246399 -3.570646 14.953878 -15.745394 -54.054420 37.387766 -4.880284 -3.510332 2.222836 -10.977016 -4.482009 -15.335479 29.678728 9.421386 3.497342 24.732482 6.480484 4.581063 -4.797301 21.629210 -16.924376 1.984872 -0.156015 6.022367 10.833968 6.361482 -9.785519 
0.709626 -0.044712 0.427502 177.147369 24.369388 -20.512806 -3.895477 4.254962 12.237938 -6.608308 -17.085068 5.100615 -0.707901 6.807284 -13.368628 4.242684 6.079282 -5.302508 -10.354012 -3.082554 -16.150138 4.739274 -3.137759 38.782142 12.793064 -12.196617 -10.121573 -11.562436 9.545250 -1.373144 8.274489 -5.085660 17.199594 8.481075 -0.697627 9.912704 4.686075 -1.584899 1.516140 -2.374881 2.041097 -3.685780 -10.854280 -3.737548 3.540165 -24.457621 -2.758922 4.121087 -42.548523 -4.091756 15.249282 -13.391375 -57.732080 34.816180 -3.895832 -5.207388 0.589944 -9.862633 -3.986317 -12.965964 29.784907 9.673654 4.076755 24.386556 6.685688 3.906627 -5.158838 22.869125 -16.774689 1.001062 1.183086 4.959600 10.348616 6.395290 -8.689706 
0.689534 -0.048538 0.483781 177.424531 24.619191 -19.029919 -2.997763 5.576768 16.574101 -6.069212 -17.985200 3.099634 -0.507646 5.665934 -16.100141 1.910979 5.514592 -2.731428 -10.034042 -3.464329 -18.229402 5.770239 -3.777975 14.991058 15.145433 -9.614417 -6.336436 -13.554765 9.753714 2.467713 8.672870 -5.334250 17.180943 7.555530 -0.298255 10.160299 4.899017 -1.285225 1.109313 -3.154111 2.424631 -3.425315 -10.118149 -3.220126 2.560114 -24.824134 -2.486417 3.938778 -43.128205 -3.657703 15.363475 -11.810905 -58.525282 33.323623 -2.922985 -6.250858 1.488458 -11.101012 -4.894575 -12.389966 29.982249 9.714078 4.605762 24.204543 7.181487 3.253358 -4.618847 23.655657 -16.048307 -0.303672 2.092306 5.319655 12.975462 7.731750 -9.376022 
